<svg width="101" height="101" viewBox="0 0 101 101" fill="none" xmlns="http://www.w3.org/2000/svg">
<circle cx="50.5" cy="50.5" r="50.5" fill="black"/>
<mask id="mask0_0_1" style="mask-type:alpha" maskUnits="userSpaceOnUse" x="0" y="0" width="101" height="101">
<circle cx="50.5" cy="50.5" r="50.5" fill="black"/>
</mask>
<g mask="url(#mask0_0_1)">
<path d="M90.3553 29C90.3553 27.8954 89.4599 27 88.3553 27L70.3553 27C69.2508 27 68.3553 27.8954 68.3553 29C68.3553 30.1046 69.2508 31 70.3553 31L86.3553 31L86.3553 47C86.3553 48.1046 87.2508 49 88.3553 49C89.4599 49 90.3553 48.1046 90.3553 47L90.3553 29ZM54.4142 65.7696L89.7696 30.4142L86.9411 27.5858L51.5858 62.9411L54.4142 65.7696Z" fill="white"/>
<rect x="78.0703" y="28.9124" width="15" height="44.8586" transform="rotate(45 78.0703 28.9124)" fill="white"/>
<rect x="82.0607" y="28.0607" width="9.81371" height="4.32843" transform="rotate(45 82.0607 28.0607)" fill="white"/>
<rect x="82.0607" y="28.0607" width="9.81371" height="4.32843" transform="rotate(45 82.0607 28.0607)" fill="white"/>
<path d="M52.4142 10.5858C51.6332 9.80474 50.3668 9.80474 49.5858 10.5858L36.8579 23.3137C36.0768 24.0948 36.0768 25.3611 36.8579 26.1421C37.6389 26.9232 38.9052 26.9232 39.6863 26.1421L51 14.8284L62.3137 26.1421C63.0948 26.9232 64.3611 26.9232 65.1421 26.1421C65.9232 25.3611 65.9232 24.0948 65.1421 23.3137L52.4142 10.5858ZM53 62V12H49V62H53Z" fill="white"/>
<rect x="43" y="18" width="15" height="90" fill="white"/>
<rect x="47" y="16" width="8" height="3" fill="white"/>
<path d="M14 27C12.8954 27 12 27.8954 12 29L12 47C12 48.1046 12.8954 49 14 49C15.1046 49 16 48.1046 16 47L16 31L32 31C33.1046 31 34 30.1046 34 29C34 27.8954 33.1046 27 32 27L14 27ZM50.7696 62.9411L15.4142 27.5858L12.5858 30.4142L47.9411 65.7696L50.7696 62.9411Z" fill="white"/>
<rect x="12" y="39.6066" width="15" height="44.8586" transform="rotate(-45 12 39.6066)" fill="white"/>
<rect x="13" y="35.9393" width="9.81371" height="4.32843" transform="rotate(-45 13 35.9393)" fill="white"/>
</g>
</svg>
